<?xml version="1.0" encoding="utf-8"?>
<svg viewBox="0 0 32 32" fill="#000000" xmlns="http://www.w3.org/2000/svg">
  <path d="M 25.866 21.23 C 24.542 21.807 23.463 14.748 25.09 15.178 C 26.261 15.838 27.037 17.072 27.037 18.49 C 27.037 19.566 26.588 20.538 25.868 21.229 L 25.867 21.23 L 25.866 21.23 Z M 24.455 25.731 C 22.9 27.857 20.793 27.94 20.008 27.346 C 19.187 26.585 19.813 24.217 20.939 22.919 C 22.226 21.485 23.603 20.551 24.562 21.282 C 24.951 21.891 25.18 22.632 25.18 23.427 C 25.18 24.289 24.91 25.089 24.448 25.743 L 24.455 25.732 L 24.455 25.731 Z M 19.397 23.1 C 19.313 24.952 17.789 26.425 15.922 26.425 C 15.872 26.425 15.823 26.424 15.773 26.422 L 15.78 26.422 C 15.729 26.425 15.667 26.426 15.604 26.426 C 13.749 26.426 12.233 24.975 12.124 23.147 L 12.124 23.136 L 12.124 23.1 C 12.209 21.25 13.732 19.779 15.598 19.779 C 15.649 19.779 15.699 19.78 15.749 19.781 L 15.74 19.781 C 15.793 19.779 15.855 19.778 15.917 19.778 C 17.773 19.778 19.29 21.229 19.396 23.057 L 19.396 23.067 C 19.396 23.078 19.396 23.09 19.396 23.1 L 19.397 23.1 Z M 15.777 30.789 C 13.969 30.866 12.2 29.331 12.222 28.799 C 12.196 28.021 14.422 27.411 15.874 27.447 C 17.336 27.384 19.296 27.91 19.299 28.608 C 19.322 29.288 17.522 30.819 15.777 30.789 Z M 9.484 19.991 C 8.654 19.346 8.126 18.35 8.126 17.23 C 8.126 16.41 8.409 15.656 8.883 15.06 L 8.877 15.068 C 9.519 13.971 10.69 13.246 12.03 13.246 C 12.651 13.246 13.237 13.401 13.748 13.675 L 13.728 13.666 C 14.557 14.309 15.086 15.306 15.086 16.427 C 15.086 17.247 14.802 17.999 14.328 18.596 L 14.334 18.588 C 13.693 19.685 12.521 20.411 11.181 20.411 C 10.56 20.411 9.975 20.255 9.463 19.981 L 9.484 19.991 Z M 11.114 27.352 C 10.79 27.459 10.416 27.521 10.03 27.521 C 8.675 27.521 7.495 26.765 6.89 25.653 L 6.881 25.634 C 5.926 23.951 6.048 22.238 6.72 21.735 C 7.724 21.134 9.274 21.947 10.469 23.31 C 11.508 24.544 11.983 26.712 11.114 27.352 Z M 5.515 21.317 C 4.791 20.626 4.34 19.654 4.34 18.576 C 4.34 17.16 5.118 15.925 6.27 15.277 L 6.288 15.267 C 7.916 14.838 6.839 21.895 5.515 21.317 Z M 11.877 9.825 C 12.91 9.994 6.918 15.148 6.826 13.998 C 6.819 13.908 6.817 13.803 6.817 13.698 C 6.817 11.481 8.612 9.684 10.827 9.684 C 11.2 9.684 11.562 9.735 11.903 9.831 L 11.876 9.825 L 11.877 9.825 Z M 8.177 8.336 C 8.361 8.325 8.518 8.227 8.612 8.084 L 8.613 8.082 C 8.045 7.954 7.542 7.741 7.092 7.457 L 7.111 7.468 C 7.155 7.475 7.204 7.48 7.257 7.48 C 7.43 7.48 7.593 7.43 7.729 7.339 L 7.726 7.341 C 7.175 7.104 6.701 6.81 6.279 6.459 L 6.286 6.464 C 6.544 6.46 6.821 6.461 6.902 6.369 C 6.462 6.105 6.082 5.799 5.747 5.45 L 5.747 5.448 C 6.105 5.49 6.256 5.453 6.344 5.39 C 5.961 5.088 5.634 4.736 5.369 4.341 L 5.358 4.323 C 5.455 4.376 5.57 4.405 5.693 4.405 C 5.821 4.405 5.942 4.373 6.048 4.314 L 6.044 4.316 C 5.928 4.057 5.429 3.903 5.139 3.297 C 5.42 3.323 5.716 3.356 5.778 3.297 C 5.66 2.866 5.463 2.489 5.2 2.17 L 5.204 2.175 C 5.323 2.18 5.463 2.182 5.601 2.182 C 5.978 2.182 6.352 2.163 6.72 2.122 L 6.674 2.126 L 6.303 1.752 C 6.464 1.723 6.648 1.706 6.835 1.706 C 7.226 1.706 7.603 1.78 7.947 1.919 L 7.925 1.912 C 8.121 1.76 7.922 1.567 7.683 1.37 C 8.189 1.434 8.648 1.551 9.082 1.718 L 9.04 1.706 C 9.257 1.512 8.899 1.318 8.725 1.123 C 9.263 1.206 9.743 1.399 10.159 1.68 L 10.149 1.672 C 10.382 1.451 10.16 1.262 10.002 1.068 C 10.469 1.244 10.866 1.5 11.198 1.826 L 11.197 1.824 C 11.305 1.681 11.468 1.579 11.27 1.233 C 11.649 1.445 11.966 1.718 12.217 2.046 L 12.222 2.052 C 12.478 1.895 12.375 1.674 12.376 1.473 C 12.749 1.801 13.086 2.15 13.399 2.525 L 13.41 2.54 C 13.509 2.409 13.574 2.248 13.588 2.073 L 13.588 2.07 C 14.611 3.048 16.055 5.511 13.961 6.487 C 12.175 5.081 10.091 3.959 7.826 3.232 L 7.685 3.193 C 9.906 4.195 11.813 5.49 13.46 7.053 L 13.449 7.042 C 12.954 8.997 10.371 9.086 9.427 9.033 C 9.609 8.972 9.754 8.844 9.838 8.678 L 9.84 8.674 C 9.601 8.509 8.762 8.657 8.174 8.331 L 8.177 8.336 Z M 15.743 9.124 C 17.232 9.107 19.071 10.217 19.066 11.262 C 19.06 12.184 17.773 12.931 15.756 12.917 C 13.78 12.892 12.452 11.978 12.456 11.084 C 12.46 10.349 14.069 9.081 15.743 9.124 Z M 17.861 2.074 C 17.873 2.252 17.938 2.414 18.04 2.546 L 18.038 2.544 C 18.36 2.155 18.698 1.807 19.063 1.485 L 19.071 1.478 C 19.072 1.679 18.97 1.898 19.227 2.058 C 19.483 1.724 19.8 1.449 20.164 1.246 L 20.18 1.237 C 19.98 1.58 20.145 1.684 20.252 1.829 C 20.584 1.507 20.983 1.248 21.424 1.079 L 21.448 1.072 C 21.29 1.265 21.067 1.454 21.303 1.675 C 21.708 1.403 22.186 1.209 22.706 1.131 L 22.725 1.129 C 22.551 1.322 22.192 1.517 22.41 1.708 C 22.803 1.556 23.262 1.438 23.737 1.378 L 23.767 1.374 C 23.529 1.572 23.329 1.765 23.525 1.916 C 23.849 1.785 24.224 1.708 24.615 1.708 C 24.803 1.708 24.989 1.727 25.168 1.761 L 25.147 1.757 L 24.776 2.13 C 25.098 2.167 25.471 2.186 25.848 2.186 C 25.99 2.186 26.126 2.183 26.267 2.178 L 26.248 2.178 C 25.987 2.493 25.79 2.87 25.68 3.28 L 25.674 3.301 C 25.733 3.361 26.03 3.327 26.312 3.301 C 26.024 3.908 25.523 4.061 25.408 4.319 C 25.509 4.376 25.63 4.41 25.759 4.41 C 25.88 4.41 25.997 4.379 26.099 4.325 L 26.094 4.327 C 25.817 4.74 25.492 5.091 25.118 5.388 L 25.11 5.393 C 25.197 5.455 25.348 5.493 25.707 5.451 C 25.37 5.801 24.991 6.107 24.576 6.36 L 24.551 6.373 C 24.632 6.464 24.909 6.461 25.166 6.468 C 24.752 6.812 24.278 7.106 23.766 7.329 L 23.728 7.343 C 23.86 7.432 24.023 7.482 24.199 7.482 C 24.249 7.482 24.297 7.478 24.348 7.47 L 24.341 7.471 C 23.911 7.746 23.409 7.956 22.872 8.077 L 22.839 8.084 C 22.934 8.229 23.092 8.328 23.274 8.338 L 23.275 8.338 C 22.688 8.663 21.847 8.514 21.611 8.68 C 21.696 8.85 21.84 8.978 22.019 9.037 L 22.024 9.038 C 21.081 9.093 18.497 9.002 18 7.048 C 19.639 5.494 21.546 4.2 23.639 3.249 L 23.768 3.196 C 21.364 3.963 19.277 5.084 17.449 6.524 L 17.492 6.492 C 15.395 5.516 16.84 3.052 17.864 2.077 L 17.861 2.074 Z M 22.037 19.815 C 21.546 20.079 20.96 20.235 20.339 20.235 C 19 20.235 17.828 19.509 17.196 18.43 L 17.187 18.414 C 16.719 17.826 16.436 17.072 16.436 16.253 C 16.436 15.132 16.964 14.136 17.787 13.498 L 17.796 13.491 C 18.287 13.227 18.873 13.072 19.493 13.072 C 20.833 13.072 22.004 13.798 22.636 14.875 L 22.646 14.893 C 23.113 15.48 23.396 16.235 23.396 17.053 C 23.396 18.176 22.868 19.172 22.045 19.809 L 22.037 19.815 Z M 24.683 14.085 C 24.59 15.236 18.599 10.083 19.634 9.911 C 19.948 9.823 20.309 9.771 20.682 9.771 C 22.898 9.771 24.694 11.568 24.694 13.784 C 24.694 13.891 24.69 13.995 24.682 14.099 L 24.683 14.085 Z M 26.046 14.575 L 25.818 14.178 C 25.829 14.06 25.834 13.926 25.834 13.788 C 25.834 11.803 24.672 10.087 22.99 9.289 L 22.96 9.275 C 23.427 9.153 23.91 9.051 24.042 8.464 C 24.845 8.258 25.012 7.886 25.093 7.495 C 25.303 7.353 26.004 6.961 25.933 6.284 C 26.249 6.112 26.46 5.78 26.46 5.399 C 26.46 5.318 26.45 5.24 26.433 5.165 L 26.434 5.17 C 26.856 4.71 26.968 4.329 26.786 3.977 C 26.975 3.813 27.096 3.57 27.096 3.302 C 27.096 3.063 27.004 2.849 26.852 2.688 C 27.233 1.998 26.898 1.261 25.835 1.384 C 25.413 0.761 24.49 0.903 24.349 0.905 C 24.188 0.706 23.979 0.535 23.33 0.617 C 23.119 0.445 22.847 0.339 22.549 0.339 C 22.333 0.339 22.128 0.396 21.952 0.494 L 21.958 0.489 C 21.383 0.043 21.003 0.402 20.568 0.538 C 19.873 0.314 19.713 0.62 19.372 0.744 C 18.613 0.587 18.382 0.93 18.019 1.294 L 17.595 1.286 C 16.668 1.925 15.985 2.867 15.69 3.965 L 15.681 3.999 C 15.378 2.868 14.697 1.926 13.784 1.296 L 13.771 1.287 L 13.346 1.295 C 12.982 0.931 12.752 0.588 11.992 0.746 C 11.651 0.621 11.493 0.315 10.796 0.539 C 10.549 0.41 10.259 0.317 9.954 0.275 L 9.94 0.274 L 9.941 0.274 C 9.736 0.288 9.552 0.368 9.407 0.492 L 9.408 0.49 C 9.237 0.396 9.033 0.34 8.815 0.34 C 8.518 0.34 8.245 0.446 8.033 0.621 L 8.035 0.618 C 7.387 0.536 7.177 0.707 7.017 0.906 C 6.877 0.903 5.954 0.761 5.53 1.384 C 4.467 1.26 4.132 1.998 4.513 2.688 C 4.362 2.848 4.269 3.063 4.269 3.301 C 4.269 3.568 4.389 3.812 4.577 3.976 L 4.578 3.977 C 4.398 4.329 4.51 4.709 4.932 5.17 C 4.916 5.241 4.906 5.32 4.906 5.399 C 4.906 5.78 5.117 6.112 5.431 6.282 L 5.434 6.285 C 5.363 6.962 6.064 7.354 6.275 7.496 C 6.355 7.888 6.524 8.26 7.325 8.465 C 7.457 9.052 7.941 9.153 8.407 9.276 C 6.695 10.09 5.532 11.804 5.532 13.79 C 5.532 13.926 5.537 14.061 5.55 14.196 L 5.549 14.178 L 5.323 14.575 C 4.023 15.445 3.18 16.907 3.18 18.566 C 3.18 19.821 3.664 20.964 4.453 21.819 L 4.45 21.815 C 4.637 22.656 4.869 23.385 5.16 24.084 L 5.128 23.995 C 5.407 25.94 6.704 27.528 8.454 28.216 L 8.488 28.228 C 9.408 28.966 10.471 29.575 11.625 30.001 L 11.702 30.025 C 12.686 31.098 14.092 31.769 15.654 31.773 L 15.655 31.773 C 15.674 31.773 15.696 31.773 15.715 31.773 C 17.277 31.769 18.684 31.098 19.663 30.029 L 19.665 30.025 C 20.896 29.574 21.961 28.965 22.903 28.211 L 22.879 28.228 C 24.666 27.528 25.962 25.94 26.239 24.025 L 26.243 23.996 C 26.5 23.386 26.733 22.657 26.903 21.906 L 26.92 21.817 C 27.707 20.966 28.19 19.823 28.19 18.568 C 28.19 16.91 27.347 15.447 26.063 14.587 L 26.047 14.578 L 26.046 14.575 Z"/>
</svg>